<svg width="12" height="13" viewBox="0 0 12 13" fill="none" xmlns="http://www.w3.org/2000/svg">
<path d="M4.64497 1.64493L2.64497 3.64493C2.59835 3.69155 2.56137 3.74689 2.53614 3.80781C2.51091 3.86872 2.49792 3.934 2.49792 3.99993C2.49792 4.13308 2.55082 4.26078 2.64497 4.35493C2.73912 4.44908 2.86682 4.50198 2.99997 4.50198C3.13312 4.50198 3.26082 4.44908 3.35497 4.35493L4.49997 3.20493V8.99993C4.49997 9.13254 4.55265 9.25972 4.64642 9.35348C4.74019 9.44725 4.86736 9.49993 4.99997 9.49993C5.13258 9.49993 5.25976 9.44725 5.35352 9.35348C5.44729 9.25972 5.49997 9.13254 5.49997 8.99993V1.99993C5.49948 1.90122 5.46978 1.80486 5.41461 1.723C5.35944 1.64114 5.28128 1.57744 5.18997 1.53993C5.09892 1.50164 4.99856 1.49118 4.90156 1.50987C4.80457 1.52855 4.71528 1.57555 4.64497 1.64493ZM6.49997 3.99993L6.49997 10.9999C6.50046 11.0986 6.53016 11.195 6.58533 11.2769C6.6405 11.3587 6.71866 11.4224 6.80997 11.4599C6.90103 11.4982 7.00138 11.5087 7.09838 11.49C7.19537 11.4713 7.28466 11.4243 7.35497 11.3549L9.35497 9.35493C9.40183 9.30845 9.43903 9.25315 9.46442 9.19222C9.4898 9.13129 9.50287 9.06594 9.50287 8.99993C9.50287 8.93392 9.4898 8.86857 9.46442 8.80764C9.43903 8.74671 9.40183 8.69141 9.35497 8.64493C9.30849 8.59807 9.25319 8.56087 9.19226 8.53548C9.13133 8.5101 9.06598 8.49703 8.99997 8.49703C8.93396 8.49703 8.86861 8.5101 8.80768 8.53548C8.74675 8.56087 8.69145 8.59807 8.64497 8.64493L7.49997 9.79493L7.49997 3.99993C7.49997 3.86732 7.44729 3.74014 7.35352 3.64638C7.25976 3.55261 7.13258 3.49993 6.99997 3.49993C6.86736 3.49993 6.74019 3.55261 6.64642 3.64638C6.55265 3.74014 6.49997 3.86732 6.49997 3.99993Z" fill="#999999"/>
</svg>
