<svg width="10" height="10" viewBox="0 0 10 10" fill="none" xmlns="http://www.w3.org/2000/svg">
<path d="M4.52772 1.77544C4.68337 1.32766 5.31663 1.32766 5.47228 1.77544L6.06133 3.47007C6.13 3.66761 6.31434 3.80154 6.52343 3.8058L8.31714 3.84236C8.79111 3.85201 8.9868 4.45429 8.60903 4.74069L7.17937 5.82458C7.01272 5.95093 6.94231 6.16764 7.00287 6.36781L7.52239 8.08503C7.65967 8.53877 7.14734 8.911 6.75822 8.64023L5.28559 7.61548C5.11393 7.49603 4.88607 7.49603 4.71441 7.61548L3.24178 8.64023C2.85266 8.911 2.34033 8.53878 2.47761 8.08503L2.99713 6.36781C3.05769 6.16764 2.98728 5.95093 2.82063 5.82458L1.39097 4.74069C1.0132 4.45429 1.20889 3.85201 1.68286 3.84236L3.47657 3.8058C3.68566 3.80154 3.87 3.66761 3.93867 3.47007L4.52772 1.77544Z" stroke="#999999" stroke-width="0.5"/>
</svg>
