<svg width="12" height="12" viewBox="0 0 12 12" fill="none" xmlns="http://www.w3.org/2000/svg">
<path d="M10.8549 4.64509L8.85495 2.64509C8.80833 2.59847 8.75298 2.56149 8.69207 2.53626C8.63116 2.51103 8.56588 2.49805 8.49995 2.49805C8.3668 2.49805 8.2391 2.55094 8.14495 2.64509C8.0508 2.73924 7.9979 2.86694 7.9979 3.00009C7.9979 3.13324 8.0508 3.26094 8.14495 3.35509L9.29495 4.50009H3.49995C3.36734 4.50009 3.24016 4.55277 3.14639 4.64654C3.05263 4.74031 2.99995 4.86748 2.99995 5.00009C2.99995 5.1327 3.05263 5.25988 3.14639 5.35365C3.24016 5.44741 3.36734 5.50009 3.49995 5.50009H10.4999C10.5987 5.4996 10.695 5.4699 10.7769 5.41473C10.8587 5.35957 10.9224 5.2814 10.9599 5.19009C10.9982 5.09904 11.0087 4.99868 10.99 4.90169C10.9713 4.80469 10.9243 4.7154 10.8549 4.64509ZM8.49995 6.50009H1.49995C1.40124 6.50059 1.30488 6.53029 1.22302 6.58545C1.14116 6.64062 1.07746 6.71878 1.03995 6.81009C1.00166 6.90115 0.991197 7.0015 1.00988 7.0985C1.02857 7.19549 1.07557 7.28478 1.14495 7.35509L3.14495 9.35509C3.19143 9.40196 3.24673 9.43915 3.30766 9.46454C3.36859 9.48992 3.43394 9.50299 3.49995 9.50299C3.56595 9.50299 3.63131 9.48992 3.69224 9.46454C3.75317 9.43915 3.80847 9.40196 3.85495 9.35509C3.90181 9.30861 3.93901 9.25331 3.96439 9.19238C3.98978 9.13145 4.00285 9.0661 4.00285 9.00009C4.00285 8.93409 3.98978 8.86873 3.96439 8.8078C3.93901 8.74687 3.90181 8.69157 3.85495 8.64509L2.70495 7.50009H8.49995C8.63256 7.50009 8.75973 7.44741 8.8535 7.35365C8.94727 7.25988 8.99995 7.1327 8.99995 7.00009C8.99995 6.86748 8.94727 6.74031 8.8535 6.64654C8.75973 6.55277 8.63256 6.50009 8.49995 6.50009Z" fill="#999999"/>
</svg>
