<svg width="32" height="33" viewBox="0 0 32 33" fill="none" xmlns="http://www.w3.org/2000/svg">
<path d="M11.28 15.5532L18.8267 8.01989C18.9506 7.89491 19.0981 7.79572 19.2606 7.72803C19.423 7.66034 19.5973 7.62549 19.7733 7.62549C19.9494 7.62549 20.1236 7.66034 20.2861 7.72803C20.4486 7.79572 20.5961 7.89491 20.72 8.01989C20.9683 8.2697 21.1077 8.60764 21.1077 8.95989C21.1077 9.31213 20.9683 9.65007 20.72 9.89989L14.12 16.5666L20.72 23.1666C20.9683 23.4164 21.1077 23.7543 21.1077 24.1066C21.1077 24.4588 20.9683 24.7967 20.72 25.0466C20.5965 25.1725 20.4493 25.2728 20.2868 25.3414C20.1243 25.4101 19.9497 25.4458 19.7733 25.4466C19.5969 25.4458 19.4224 25.4101 19.2599 25.3414C19.0974 25.2728 18.9502 25.1725 18.8267 25.0466L11.28 17.5132C11.1447 17.3884 11.0367 17.2368 10.9628 17.0682C10.8889 16.8995 10.8508 16.7174 10.8508 16.5332C10.8508 16.3491 10.8889 16.1669 10.9628 15.9983C11.0367 15.8296 11.1447 15.6781 11.28 15.5532Z" fill="#999999"/>
</svg>
