<svg width="24" height="25" viewBox="0 0 24 25" fill="none" xmlns="http://www.w3.org/2000/svg">
<path d="M7.00005 15.3303C7.18741 15.5166 7.44087 15.6211 7.70505 15.6211C7.96924 15.6211 8.22269 15.5166 8.41005 15.3303L12.0001 11.7903L15.5401 15.3303C15.7274 15.5166 15.9809 15.6211 16.2451 15.6211C16.5092 15.6211 16.7627 15.5166 16.9501 15.3303C17.0438 15.2373 17.1182 15.1267 17.1689 15.0049C17.2197 14.883 17.2458 14.7523 17.2458 14.6203C17.2458 14.4883 17.2197 14.3576 17.1689 14.2357C17.1182 14.1139 17.0438 14.0033 16.9501 13.9103L12.7101 9.6703C12.6171 9.57657 12.5065 9.50218 12.3846 9.45141C12.2628 9.40064 12.1321 9.3745 12.0001 9.3745C11.868 9.3745 11.7373 9.40064 11.6155 9.45141C11.4936 9.50218 11.383 9.57657 11.2901 9.6703L7.00005 13.9103C6.90632 14.0033 6.83193 14.1139 6.78116 14.2357C6.73039 14.3576 6.70425 14.4883 6.70425 14.6203C6.70425 14.7523 6.73039 14.883 6.78116 15.0049C6.83193 15.1267 6.90632 15.2373 7.00005 15.3303Z" fill="white"/>
</svg>
