<svg width="16" height="17" viewBox="0 0 16 17" fill="none" xmlns="http://www.w3.org/2000/svg">
<path d="M8.00017 7.8335C7.82336 7.8335 7.65379 7.90373 7.52876 8.02876C7.40374 8.15378 7.3335 8.32335 7.3335 8.50016V11.1668C7.3335 11.3436 7.40374 11.5132 7.52876 11.6382C7.65379 11.7633 7.82336 11.8335 8.00017 11.8335C8.17698 11.8335 8.34655 11.7633 8.47157 11.6382C8.59659 11.5132 8.66683 11.3436 8.66683 11.1668V8.50016C8.66683 8.32335 8.59659 8.15378 8.47157 8.02876C8.34655 7.90373 8.17698 7.8335 8.00017 7.8335ZM8.2535 5.22016C8.09119 5.15348 7.90914 5.15348 7.74683 5.22016C7.665 5.25189 7.59024 5.29947 7.52683 5.36016C7.46795 5.42496 7.42059 5.49937 7.38683 5.58016C7.34951 5.65928 7.33125 5.74605 7.3335 5.8335C7.33299 5.92123 7.34981 6.00821 7.38299 6.08943C7.41616 6.17066 7.46505 6.24454 7.52683 6.30683C7.59163 6.36572 7.66604 6.41307 7.74683 6.44683C7.84783 6.48832 7.95748 6.50437 8.06613 6.49357C8.17478 6.48277 8.27912 6.44544 8.36997 6.38488C8.46083 6.32431 8.53541 6.24235 8.58717 6.14621C8.63893 6.05007 8.66629 5.94268 8.66683 5.8335C8.66438 5.65698 8.59532 5.48792 8.4735 5.36016C8.4101 5.29947 8.33533 5.25189 8.2535 5.22016ZM8.00017 1.8335C6.68162 1.8335 5.39269 2.22449 4.29636 2.95703C3.20004 3.68957 2.34555 4.73077 1.84097 5.94894C1.33638 7.16711 1.20436 8.50756 1.4616 9.80076C1.71883 11.094 2.35377 12.2819 3.28612 13.2142C4.21847 14.1466 5.40636 14.7815 6.69956 15.0387C7.99277 15.296 9.33322 15.1639 10.5514 14.6594C11.7696 14.1548 12.8108 13.3003 13.5433 12.204C14.2758 11.1076 14.6668 9.81871 14.6668 8.50016C14.6668 7.62468 14.4944 6.75778 14.1594 5.94894C13.8243 5.1401 13.3333 4.40517 12.7142 3.78612C12.0952 3.16706 11.3602 2.676 10.5514 2.34097C9.74255 2.00593 8.87565 1.8335 8.00017 1.8335V1.8335ZM8.00017 13.8335C6.94533 13.8335 5.91419 13.5207 5.03712 12.9347C4.16006 12.3486 3.47648 11.5157 3.07281 10.5411C2.66914 9.5666 2.56352 8.49425 2.76931 7.45968C2.9751 6.42512 3.48305 5.47481 4.22893 4.72893C4.97481 3.98305 5.92512 3.4751 6.95968 3.26931C7.99425 3.06352 9.06661 3.16914 10.0411 3.57281C11.0157 3.97647 11.8486 4.66006 12.4347 5.53712C13.0207 6.41418 13.3335 7.44533 13.3335 8.50016C13.3335 9.91465 12.7716 11.2712 11.7714 12.2714C10.7712 13.2716 9.41465 13.8335 8.00017 13.8335V13.8335Z" fill="#747474"/>
</svg>
